<?xml version="1.0" encoding="UTF-8"?>
<svg id="Layer_2" data-name="Layer 2" xmlns="http://www.w3.org/2000/svg" xmlns:xlink="http://www.w3.org/1999/xlink" viewBox="0 0 65.37 42.59">
  <defs>
    <style>
      .cls-1 {
        fill: url(#linear-gradient);
      }
    </style>
    <linearGradient id="linear-gradient" x1="-16.97" y1="21.3" x2="48.4" y2="21.3" gradientUnits="userSpaceOnUse">
      <stop offset="0" stop-color="#95131a"/>
      <stop offset="1" stop-color="#d6222c"/>
    </linearGradient>
  </defs>
  <g id="Layer_1-2" data-name="Layer 1">
    <path class="cls-1" d="m65.37,12.41c-3.64,2.1-7.14,4.11-10.79,6.21-.06-2.12,0-4.1-.05-6.04H0v1.31c0,5.82,0,11.64.01,17.45,0,.72.05,1.43.11,2.14.36,4.97,4.79,9.13,10.01,9.11,11.42-.04,22.84,0,34.26-.03,1.02,0,2.07-.14,3.05-.43,4.26-1.28,7.1-5.17,7.11-9.63.01-1.38,0-2.77,0-4.34,3.67,2.11,7.17,4.13,10.82,6.23V12.41Zm-32.38,14.09c-1.06.67-2.16,1.26-3.24,1.88-1.85,1.07-3.7,2.14-5.55,3.21-.06.04-.12.08-.19.11-1.38.75-2.43.16-2.44-1.4-.02-1.67-.01-3.35-.01-5.02v-4.71c0-.22-.01-.43.01-.64.08-1.29,1.1-1.9,2.25-1.3.85.44,1.67.95,2.51,1.43,2.09,1.22,4.19,2.43,6.29,3.65.12.07.25.13.37.21,1.1.72,1.12,1.87,0,2.58ZM54.42.12v8.53c-.72.21-52.3.3-54.14.08-.04-.22-.1-.45-.1-.69.01-2.68-.01-5.36.04-8.04h8.81c-1.9,2.18-3.74,4.3-5.67,6.52.34.1.55.22.77.23,1.32.02,2.64-.01,3.96.02.54.01.87-.26,1.18-.62,1.17-1.35,2.34-2.69,3.51-4.04.56-.64,1.02-1.51,1.73-1.84.71-.33,1.67-.14,2.53-.15,1.09,0,2.19,0,3.54,0-1.04,1.2-1.92,2.22-2.79,3.23-.88,1.02-1.76,2.05-2.77,3.22.41.09.66.18.91.18,1.18.02,2.35-.03,3.53.02.72.04,1.21-.21,1.66-.75,1.23-1.48,2.48-2.94,3.73-4.41.02-.03.04-.06.06-.09.71-1.04,1.61-1.57,2.96-1.43,1.34.14,2.7.03,4.29.03-1.77,2.29-3.62,4.23-5.4,6.41.37.1.59.21.81.22,1.28.01,2.57-.01,3.85.02.58.01.93-.29,1.26-.68,1.52-1.75,3.06-3.48,4.54-5.27.44-.52.88-.74,1.55-.71,1.35.04,2.71,0,4.07,0,.27,0,.55.03,1.02.06-1.85,2.16-3.6,4.2-5.43,6.34.31.11.49.23.67.23,1.32.02,2.64-.01,3.96.01.65.01,1.05-.34,1.43-.8,1.45-1.71,2.95-3.39,4.38-5.12.46-.55.96-.76,1.66-.73,1.27.04,2.55,0,3.89,0Z"/>
  </g>
</svg>